# xmcd
#
# Track frame offsets:
#	150
#	11376
#	21485
#	32884
#	41385
#	51586
#	64416
#	76360
#	85655
#	97275
#	106893
#	117705
#	129084
#	142918
#	154087
#	165389
#	177742
#	191359
#	200991
#	212464
#	225705
#	237774
#
# Disc length: 3329 seconds
#
# Revision: 1
# Processed by: cddbd v1.5.2PL0 Copyright (c) Steve Scherf et al.
# Submitted via: audiograbber 1.83.01
#
DISCID=310cff16
DTITLE=Various Artist - The Soul Of Jewel - Paula - Ronn
DYEAR=2010
DGENRE=Soul
TTITLE0=Billy Joe Young - Got You On My Mind Again
TTITLE1=Bill Bush - I'm Waiting
TTITLE2=Ola V. Harper - I Wanna Weep
TTITLE3=The Objectives - Love Went Away
TTITLE4=Peggy Paxton - It Ain't What You Do
TTITLE5=Billy Keene - Wishing And Hoping
TTITLE6=Cliff Wagner - Exception To The Rule
TTITLE7=Toussaint McCall - I'm Undecided
TTITLE8=The Carter Brothers - (She's So Fine) So Glad She's Mine
TTITLE9=Peppermint Harris - Wait Until It Happens To You
TTITLE10=The Uniques and Joe Stampley - Not Too Long Ago
TTITLE11=Barbara West - I'm A Fool For You Baby
TTITLE12=Little Charles - Guess I'll Have To Take What's Left
TTITLE13=Shay Holiday - Fight Fire With Fire
TTITLE14=The El Dorados - Since You Came Into My Life
TTITLE15=The Montclairs - Hung Up On Your Love
TTITLE16=Bobby Patterson - Everything Good To You
TTITLE17=Barbara West - Congratulations Baby
TTITLE18=Tommie Young - Hit And Run Lover
TTITLE19=Isaac Taylor - I'm Tired Of These Changes
TTITLE20=Miki Honeycutt - Sugar Coated Words
TTITLE21=Jay Jay Taylor - I'm Not Tired Yet
EXTD=
EXTT0=
EXTT1=
EXTT2=
EXTT3=
EXTT4=
EXTT5=
EXTT6=
EXTT7=
EXTT8=
EXTT9=
EXTT10=
EXTT11=
EXTT12=
EXTT13=
EXTT14=
EXTT15=
EXTT16=
EXTT17=
EXTT18=
EXTT19=
EXTT20=
EXTT21=
PLAYORDER=
